<?xml version="1.0" encoding="UTF-8" standalone="no"?>
<!-- Uploaded to: SVG Repo, www.svgrepo.com, Generator: SVG Repo Mixer Tools -->

<svg
   width="800px"
   height="800px"
   preserveAspectRatio="none"
   viewBox="0 0 72 72"
   id="emoji"
   version="1.1"
   xmlns="http://www.w3.org/2000/svg"
   xmlns:svg="http://www.w3.org/2000/svg">
  <defs
     id="defs9" />
  <rect
     style="fill:#7aacb1;fill-opacity:1;stroke:none;stroke-width:1.296;stroke-linejoin:round;stroke-opacity:1"
     id="rect10"
     width="73.031487"
     height="72.153358"
     x="-0.73177844"
     y="-0.29271138" />
  <path
     style="fill:#74b775;fill-opacity:1;stroke:none;stroke-width:1.36607;stroke-linejoin:round"
     d="M -1.451754,46.984861 36.61253,35.418078 73.154241,46.515937 73.763269,74.495048 H -1.7562683 Z"
     id="path10" />
  <rect
     x="43.347889"
     y="20.092121"
     width="6"
     height="39"
     fill="#ffffff"
     id="rect21" />
  <rect
     x="43.347889"
     y="27.69212"
     width="6"
     height="1.4502543"
     fill="#ea5a47"
     id="rect22"
     style="fill:#c38016;fill-opacity:1;stroke-width:0.602133" />
  <rect
     x="43.347889"
     y="31.292118"
     width="6"
     height="1.4502543"
     fill="#ea5a47"
     id="rect23"
     style="fill:#c38016;fill-opacity:1;stroke-width:0.602133" />
  <rect
     x="43.347889"
     y="34.892117"
     width="6"
     height="1.4502543"
     fill="#ea5a47"
     id="rect24"
     style="fill:#c38016;fill-opacity:1;stroke-width:0.602133" />
  <rect
     x="43.347889"
     y="24.092121"
     width="6"
     height="1.4502543"
     fill="#ea5a47"
     id="rect25"
     style="fill:#c38016;fill-opacity:1;stroke-width:0.602133" />
  <path
     fill="#ffffff"
     d="m 19.428317,26.378072 c -0.003,0.0088 -0.01659,0.0076 -0.01659,0.0076 -0.111376,0.106116 -0.22722,0.198809 -0.346635,0.277362 -0.0083,0.0038 -0.0113,0.01258 -0.01959,0.01638 -0.613937,0.384881 -1.278518,0.493182 -1.925967,0.313859 -1.880328,-0.524396 -3.200298,-3.357355 -3.03,-6.503078 -1.536995,-2.063026 -1.011998,-6.143043 0.899279,-6.98874 C 14.570167,12.444362 14.4058,11.165842 14.528114,9.9179455 14.643716,8.7995057 14.987165,7.7804239 15.501256,7.0304365 13.109811,5.614791 14.294145,2.1161868 14.931132,-1.9621533 l 8.240003,1.83562149 C 23.095275,4.7159279 22.66128,6.9945418 21.695892,10.557984 c -0.04121,3.679845 0.469502,5.529968 -0.991427,6.971831 0.38055,0.883534 0.04356,3.325436 -0.58374,5.810633"
     id="path17"
     style="fill:#695a3e;fill-opacity:1;stroke-width:0.783369" />
  <path
     style="fill:#ac9460;fill-opacity:1;stroke-width:2.1151;stroke-linejoin:round"
     d="m 16.773804,10.798657 c 0.940489,-0.496037 2.399592,-0.9708384 2.566185,-1.8950216 1.705805,-0.00598 3.146664,-4.1708231 3.711222,-6.2864584 0.927926,6.7488736 -2.619149,9.11705 -6.277407,8.18148 z"
     id="path18" />
  <path
     style="color:#000000;fill:#000000;stroke-linecap:round;stroke-linejoin:round;-inkscape-stroke:none"
     d="m 43.347887,19.092121 c -0.552262,5.5e-5 -0.999945,0.447738 -1,1 v 22.720703 c 0,0.552285 0.447715,1 1,1 0.552285,0 1,-0.447715 1,-1 V 21.092121 h 4 v 37 h -4.751691 c -0.552284,0 -1,0.447715 -1,1 0,0.552285 0.447716,1 1,1 h 5.751691 c 0.552262,-5.5e-5 0.999945,-0.447738 1,-1 v -39 c -5.5e-5,-0.552262 -0.447738,-0.999945 -1,-1 z"
     id="path25" />
  <rect
     x="52.980003"
     y="27"
     width="6"
     height="39"
     fill="#ffffff"
     id="rect3" />
  <rect
     x="52.980003"
     y="34.599998"
     width="6"
     height="1.4502543"
     fill="#ea5a47"
     id="rect1"
     style="stroke-width:0.602133;fill:#c38016;fill-opacity:1" />
  <rect
     x="52.980003"
     y="38.199997"
     width="6"
     height="1.4502543"
     fill="#ea5a47"
     id="rect2"
     style="stroke-width:0.602133;fill:#c38016;fill-opacity:1" />
  <path
     fill="#ffffff"
     d="m 34.468682,24.890563 c -0.003,0.0088 -0.01659,0.0076 -0.01659,0.0076 -0.111376,0.106116 -0.22722,0.198809 -0.346635,0.277362 -0.0083,0.0038 -0.0113,0.01258 -0.01959,0.01638 -0.613937,0.384881 -1.278518,0.493182 -1.925967,0.313859 -1.880328,-0.524396 -3.200298,-3.357355 -3.03,-6.503078 -1.536995,-2.063026 -1.011998,-6.143043 0.899279,-6.98874 C 29.610532,10.956853 29.446165,9.6783334 29.568479,8.4304369 29.684081,7.3119971 30.02753,6.2929153 30.541621,5.5429279 28.150176,4.1272824 29.33451,0.62867823 29.971497,-3.4496619 l 8.240003,1.8356215 c -0.07586,4.8424597 -0.509855,7.1210736 -1.475243,10.684516 -0.04121,3.6798444 0.469502,5.5299674 -0.991427,6.9718304 0.38055,0.883534 0.04356,3.325436 -0.58374,5.810633"
     id="path1"
     style="fill:#695a3e;fill-opacity:1;stroke-width:0.783369" />
  <path
     fill="#9b9b9a"
     d="m 70.24,10.5062 a 0.8469,0.8469 0 0 0 -0.17,-0.04 c -0.01,-0.05 -0.03,-0.1 -0.04,-0.14 a 1.68,1.68 0 0 1 0.21,0.18 z"
     id="path3" />
  <rect
     x="52.980003"
     y="41.799995"
     width="6"
     height="1.4502543"
     fill="#ea5a47"
     id="rect4"
     style="stroke-width:0.602133;fill:#c38016;fill-opacity:1" />
  <path
     fill="#9b9b9a"
     d="m 47.032337,43.435312 c -2.319423,0.01674 -5.097215,-0.351521 -7.928928,-0.01773 -0.823358,-7.326932 -1.253853,-13.9166 0.05533,-21.366643 l -4.235058,-0.311756 0.194588,44.353893 H 46.9465 Z"
     id="path4"
     style="stroke-width:0.862415" />
  <path
     fill="#3f3f3f"
     d="M 46.768205,43.553479 47,66 h 6 l 0,-22.24206 z"
     id="path6" />
  <rect
     x="52.980003"
     y="31"
     width="6"
     height="1.4502543"
     fill="#ea5a47"
     id="rect6"
     style="stroke-width:0.602133;fill:#c38016;fill-opacity:1" />
  <path
     fill="none"
     stroke="#000000"
     stroke-linecap="round"
     stroke-linejoin="round"
     stroke-width="2"
     d="M 44.197,66 H 53 V 55 c 3.62e-4,-4.262111 -0.21431,-11.432579 -0.21431,-11.432579 l -12.251454,-0.0478"
     id="path9" />
  <path
     style="color:#000000;fill:#000000;stroke-linecap:round;stroke-linejoin:round;-inkscape-stroke:none"
     d="m 51,26 c -0.552262,5.5e-5 -0.999945,0.447738 -1,1 v 22.720703 c 0,0.552285 0.447715,1 1,1 0.552285,0 1,-0.447715 1,-1 V 28 h 4 v 37 l -4.751691,0 c -0.552284,0 -1,0.447715 -1,1 0,0.552285 0.447716,1 1,1 L 57,67 c 0.552262,-5.5e-5 0.999945,-0.447738 1,-1 V 27 c -5.5e-5,-0.552262 -0.447738,-0.999945 -1,-1 z"
     id="polyline8"
     transform="translate(1.98)" />
  <path
     style="fill:#ac9460;fill-opacity:1;stroke-width:2.1151;stroke-linejoin:round"
     d="M 31.814169,9.3111486 C 32.754658,8.815111 34.213761,8.34031 34.380354,7.4161268 c 1.705805,-0.00598 3.146664,-4.1708231 3.711222,-6.2864584 0.927926,6.7488736 -2.619149,9.1170496 -6.277407,8.1814802 z"
     id="path11" />
  <path
     style="fill:#ac9460;fill-opacity:1;stroke-width:2.1151;stroke-linejoin:round"
     d="m 30.927049,16.108958 c 1.334859,-0.37906 2.918423,-1.463349 3.293596,-3.040162 1.474749,-0.589837 1.9939,-1.595482 2.41928,-3.189563 0.927926,6.748873 -2.230862,6.671811 -5.712876,6.229725 z"
     id="path12" />
  <path
     style="fill:#ac9460;fill-opacity:1;stroke-width:2.1151;stroke-linejoin:round"
     d="M 34.332749,4.010566 C 35.399846,3.2608364 36.405791,1.3507971 36.700411,0.09441455 36.862188,2.8692489 35.623023,3.7866311 34.332749,4.010566 Z"
     id="path13" />
  <path
     fill="none"
     stroke="#000000"
     stroke-linecap="round"
     stroke-linejoin="round"
     stroke-width="1.56674"
     d="M 29.232466,21.465491 C 28.824912,17.718775 28.051053,12.796914 29.962329,11.951218 29.543683,10.894125 29.379315,9.6156057 29.501629,8.3677094 29.617231,7.2492695 29.960679,6.2301877 30.474771,5.4802003 29.38219,2.6615166 29.09825,0.75306154 29.904655,-3.5123545 l 8.296475,1.8356215 c 0.319446,4.000615 -0.227495,7.7758433 -1.531716,10.684517 0.91882,2.370308 0.01772,4.688122 -0.991427,6.971829 0.380551,0.883535 -0.06938,3.69959 -0.753155,5.904172"
     id="path7" />
  <path
     style="fill:#ac9460;fill-opacity:1;stroke-width:2.1151;stroke-linejoin:round"
     d="m 15.886684,17.596467 c 1.334859,-0.37906 2.918423,-1.463349 3.293596,-3.040162 1.474749,-0.589837 1.9939,-1.595482 2.41928,-3.189563 0.927926,6.748873 -2.230862,6.671811 -5.712876,6.229725 z"
     id="path19" />
  <path
     fill="#d0cfce"
     d="m 35.50744,66.093075 0.07422,-44.147428 -9.261552,0.02787 c 1.255123,11.198314 -2.333152,37.922078 -6.036304,44.119557 z"
     id="path5"
     style="stroke-width:0.862415" />
  <path
     style="fill:#ac9460;fill-opacity:1;stroke-width:2.1151;stroke-linejoin:round"
     d="M 19.292384,5.4980746 C 20.359481,4.748345 21.365426,2.8383057 21.660046,1.5819231 21.821823,4.3567575 20.582658,5.2741397 19.292384,5.4980746 Z"
     id="path20" />
  <path
     fill="none"
     stroke="#000000"
     stroke-linecap="round"
     stroke-linejoin="round"
     stroke-width="1.72483"
     d="M 44.870439,66.093075 C 41.167287,59.895596 36.155877,36.033879 39.266836,21.973518 L 26.233699,21.85635 c 2.559203,14.431739 -2.246739,38.039246 -5.949891,44.236725 z"
     id="path8" />
  <path
     fill="none"
     stroke="#000000"
     stroke-linecap="round"
     stroke-linejoin="round"
     stroke-width="1.56674"
     d="M 14.192101,22.953 C 13.784547,19.206284 13.010688,14.284423 14.921964,13.438727 14.503318,12.381634 14.33895,11.103114 14.461264,9.855218 14.576866,8.7367781 14.920314,7.7176963 15.434406,6.9677089 14.341825,4.1490252 14.057885,2.2405701 14.86429,-2.0248459 l 8.296475,1.83562149 C 23.480211,3.8113906 22.93327,7.5866189 21.629049,10.495293 c 0.91882,2.370308 0.01772,4.688122 -0.991427,6.971829 0.380551,0.883535 -0.06938,3.69959 -0.753155,5.904172"
     id="path21" />
  <path
     fill="#9b9b9a"
     d="M 24.19471,47.601521 C 23.245266,42.126482 22.299639,32.815686 23.506269,21.866329 l -4.013019,0.07747 -0.291883,43.944706 10.722521,0.194588 z"
     id="path14"
     style="stroke-width:0.877167" />
  <path
     fill="#d0cfce"
     d="m 19.49325,65.888508 0.07341,-43.932923 -8.743793,0.02786 C 12.856006,34.05253 8.4081306,59.888414 4.5754846,66.083097 Z"
     id="path15"
     style="stroke-width:0.877167" />
  <path
     fill="none"
     stroke="#000000"
     stroke-linecap="round"
     stroke-linejoin="round"
     stroke-width="1.75433"
     d="M 30.021882,66.083096 C 26.189236,59.888413 20.92367,36.134843 23.416758,21.983444 L 10.73344,21.866329 C 14.632738,36.631526 8.640975,59.911697 4.5754886,66.083096 Z"
     id="path16" />
</svg>
