<?xml version="1.0" encoding="UTF-8" standalone="no"?>
<!-- Uploaded to: SVG Repo, www.svgrepo.com, Generator: SVG Repo Mixer Tools -->

<svg
   width="800px"
   height="800px"
   preserveAspectRatio="none"
   viewBox="0 0 72 72"
   id="emoji"
   version="1.1"
   xmlns="http://www.w3.org/2000/svg"
   xmlns:svg="http://www.w3.org/2000/svg">
  <defs
     id="defs9" />
  <rect
     style="fill:#73989b;fill-opacity:1;stroke:none;stroke-width:1.296;stroke-linejoin:round;stroke-opacity:1"
     id="rect10"
     width="73.031487"
     height="72.153358"
     x="-0.73177844"
     y="-0.29271138" />
  <path
     style="fill:#74b775;fill-opacity:1;stroke:none;stroke-width:1.36607;stroke-linejoin:round"
     d="M -1.451754,46.984861 36.61253,35.418078 73.154241,46.515937 73.763269,74.495048 H -1.7562683 Z"
     id="path10" />
  <rect
     x="52.980003"
     y="27"
     width="6"
     height="39"
     fill="#ffffff"
     id="rect3" />
  <rect
     x="52.980003"
     y="34.599998"
     width="6"
     height="1.4502543"
     fill="#ea5a47"
     id="rect1"
     style="stroke-width:0.602133;fill:#475fea;fill-opacity:1" />
  <rect
     x="52.980003"
     y="38.199997"
     width="6"
     height="1.4502543"
     fill="#ea5a47"
     id="rect2"
     style="stroke-width:0.602133;fill:#475fea;fill-opacity:1" />
  <path
     fill="#ffffff"
     d="m 31.715809,24.773876 c -0.0049,0.0087 -0.02726,0.0075 -0.02726,0.0075 -0.18298,0.105253 -0.373301,0.197193 -0.569488,0.275107 -0.01363,0.0038 -0.01856,0.01248 -0.03219,0.01625 -1.008637,0.381753 -2.100477,0.489174 -3.164172,0.311308 -3.089191,-0.520133 -5.257769,-3.330066 -4.977987,-6.45022 -2.52513,-2.046257 -1.662611,-6.093111 1.477425,-6.931934 -0.687794,-1.048501 -0.957833,-2.3166287 -0.756883,-3.5543821 0.189922,-1.109349 0.754174,-2.1201476 1.598775,-2.864039 -3.928895,-1.4041032 -1.983151,-4.87427018 -0.936645,-8.919461 l 13.537502,1.8207013 c -0.124629,4.8030995 -0.837642,7.0631925 -2.423678,10.5976707 -0.0677,3.6499341 0.771346,5.4850191 -1.628815,6.9151621 0.625205,0.876353 0.07157,3.298407 -0.959026,5.763404"
     id="path1"
     style="fill:#6b6b6b;fill-opacity:1" />
  <path
     fill="#9b9b9a"
     d="m 70.24,10.5062 a 0.8469,0.8469 0 0 0 -0.17,-0.04 c -0.01,-0.05 -0.03,-0.1 -0.04,-0.14 a 1.68,1.68 0 0 1 0.21,0.18 z"
     id="path3" />
  <rect
     x="52.980003"
     y="41.799995"
     width="6"
     height="1.4502543"
     fill="#ea5a47"
     id="rect4"
     style="stroke-width:0.602133;fill:#475fea;fill-opacity:1" />
  <path
     fill="#9b9b9a"
     d="m 47.115898,43.437582 c -3.131688,0.01667 -5.174501,-0.446927 -8.997883,-0.114541 -1.1117,-7.2961 -2.21842,-14.148692 -2.421265,-21.373616 L 33,21.83275 V 66 h 14 z"
     id="path4" />
  <path
     fill="#d0cfce"
     d="M 33,66 32.968851,22.038346 19.150225,22.0661 C 19.13712,32.829753 16,59.8286 11,66 Z"
     id="path5" />
  <path
     fill="#3f3f3f"
     d="M 46.768205,43.553479 47,66 h 6 l 0,-22.24206 z"
     id="path6" />
  <rect
     x="52.980003"
     y="31"
     width="6"
     height="1.4502543"
     fill="#ea5a47"
     id="rect6"
     style="stroke-width:0.602133;fill:#475fea;fill-opacity:1" />
  <path
     fill="none"
     stroke="#000000"
     stroke-linecap="round"
     stroke-linejoin="round"
     stroke-width="2"
     d="m 44.1969,66 c -5,-6.1714 -7.29995,-30.126475 -8.616925,-43.9339 L 19.03355,21.949425 C 18.416625,36.22355 16,59.8286 11,66 Z"
     id="path8" />
  <path
     fill="none"
     stroke="#000000"
     stroke-linecap="round"
     stroke-linejoin="round"
     stroke-width="2"
     d="M 44.197,66 H 53 V 55 C 53.000362,50.737889 52.78569,43.567421 52.78569,43.567421 L 37.875403,43.363224"
     id="path9" />
  <path
     style="color:#000000;fill:#000000;stroke-linecap:round;stroke-linejoin:round;-inkscape-stroke:none"
     d="m 51,26 c -0.552262,5.5e-5 -0.999945,0.447738 -1,1 v 22.720703 c 0,0.552285 0.447715,1 1,1 0.552285,0 1,-0.447715 1,-1 V 28 h 4 v 37 l -4.751691,0 c -0.552284,0 -1,0.447715 -1,1 0,0.552285 0.447716,1 1,1 L 57,67 c 0.552262,-5.5e-5 0.999945,-0.447738 1,-1 V 27 c -5.5e-5,-0.552262 -0.447738,-0.999945 -1,-1 z"
     id="polyline8"
     transform="translate(1.98)" />
  <path
     style="fill:#bcbcbc;fill-opacity:1;stroke-width:2.7;stroke-linejoin:round"
     d="m 30.134406,9.4959055 c 3.939308,-2.1679615 6.221328,-5.3211809 7.533456,-8.2897917 1.52449,6.6940177 -3.260614,8.133924 -7.533456,8.2897917 z"
     id="path11" />
  <path
     style="fill:#bcbcbc;fill-opacity:1;stroke-width:2.7;stroke-linejoin:round"
     d="m 28.676957,16.51816 c 3.939308,-2.167961 5.29386,-3.664989 6.605988,-6.6335994 1.52449,6.6940174 -2.333146,6.4777324 -6.605988,6.6335994 z"
     id="path12" />
  <path
     style="fill:#bcbcbc;fill-opacity:1;stroke-width:2.7;stroke-linejoin:round"
     d="M 31.492484,4.063595 C 33.245619,3.3199593 34.898285,1.4254451 35.382317,0.17927461 35.648101,2.9315547 33.612276,3.8414803 31.492484,4.063595 Z"
     id="path13" />
  <path
     fill="none"
     stroke="#000000"
     stroke-linecap="round"
     stroke-linejoin="round"
     stroke-width="2"
     d="m 23.113229,21.376644 c -0.66957,-3.716262 -1.940944,-8.598118 1.199092,-9.43694 -0.687794,-1.048501 -0.957834,-2.3166279 -0.756884,-3.5543811 0.189922,-1.109349 0.754174,-2.1201476 1.598775,-2.864039 -1.795002,-2.795773 -2.261486,-4.68871588 -0.936644,-8.919462 l 13.63028,1.8207013 c 0.524818,3.9680974 -0.373751,7.7126401 -2.516456,10.5976717 1.50953,2.3510421 0.02912,4.6500161 -1.628815,6.9151611 0.625206,0.876353 -0.113987,3.669519 -1.237359,5.856182"
     id="path7" />
</svg>
