<?xml version="1.0" encoding="UTF-8" standalone="no"?>
<!-- Uploaded to: SVG Repo, www.svgrepo.com, Generator: SVG Repo Mixer Tools -->

<svg
   width="800px"
   height="800px"
   preserveAspectRatio="none"
   viewBox="0 0 72 72"
   id="emoji"
   version="1.1"
   xmlns="http://www.w3.org/2000/svg"
   xmlns:svg="http://www.w3.org/2000/svg">
  <defs
     id="defs9" />
  <rect
     style="fill:#597b7e;fill-opacity:1;stroke:none;stroke-width:1.296;stroke-linejoin:round;stroke-opacity:1"
     id="rect10"
     width="73.031487"
     height="72.153358"
     x="-0.73177844"
     y="-0.29271138" />
  <path
     fill="none"
     stroke="#000000"
     stroke-linecap="round"
     stroke-linejoin="round"
     stroke-width="1.58891"
     d="M 32.89527,16.537119 C 32.475926,12.791961 32.434478,8.7347727 34.401045,7.8894287 33.970288,6.8327747 31.902587,5.258198 33.064392,2.043017 c -1.187475,3.2171428 -1.591941,5.9981335 -3.486016,9.103599 -1.881323,3.084556 -1.58782,7.669071 -1.335417,7.311351 -1.470894,-1.958463 -2.738119,2.633742 -2.80329,0.198689 -0.113077,-4.224944 -0.967562,-6.710347 1.534364,-10.2354161 -0.378682,-1.5201898 -1.407265,-3.8297034 -0.365431,-6.3572915 -1.537214,1.7873203 -3.130079,2.6653082 -5.447898,2.372693 1.263599,2.1520235 0.711644,4.7111306 -0.576037,5.7596756 1.351634,2.848414 -1.29644,6.282008 -3.438026,6.436273 C 15.482662,16.752451 13.369525,10.120978 14.492607,8.3718953 12.421155,4.0665919 9.4979065,0.95754315 14.069989,-6.2737732 l 27.514256,0.1096058 c 0.328688,3.9989511 -0.234076,7.7726092 -1.576026,10.6800732 0.945401,2.3693229 0.01824,4.6861719 -1.020108,6.9689302 0.39156,0.883167 -0.07139,3.698051 -0.774943,5.901716"
     id="path7"
     style="fill:#515151;fill-opacity:1;stroke:none" />
  <path
     style="fill:#bcbcbc;fill-opacity:1;stroke-width:2.14503;stroke-linejoin:round"
     d="m 31.631988,0.19490028 c 1.310502,-0.2230345 3.047678,-1.52639598 3.847106,-2.54128328 0.02877,2.59022608 -2.500142,3.31495723 -3.847106,2.54128328 z"
     id="path20" />
  <path
     style="fill:#bcbcbc;fill-opacity:1;stroke-width:2.14503;stroke-linejoin:round"
     d="m 17.194316,10.682199 c 1.310502,-0.223034 3.047678,-1.5263958 3.847106,-2.5412831 0.02877,2.5902261 -2.500142,3.3149571 -3.847106,2.5412831 z"
     id="path24" />
  <path
     style="fill:#bcbcbc;fill-opacity:1;stroke-width:2.14503;stroke-linejoin:round"
     d="m 28.104869,9.1772952 c 1.310502,-0.223034 2.624424,-2.0907348 3.423852,-3.1056221 0.02877,2.5902261 -2.076888,3.8792961 -3.423852,3.1056221 z"
     id="path25" />
  <path
     style="fill:#bcbcbc;fill-opacity:1;stroke-width:2.14503;stroke-linejoin:round"
     d="M 34.960353,1.8598193 C 36.270855,1.6367848 38.008031,0.33342326 38.807459,-0.68146404 38.836229,1.9087621 36.307317,2.6334932 34.960353,1.8598193 Z"
     id="path13" />
  <path
     style="fill:#bcbcbc;fill-opacity:1;stroke-width:2.14503;stroke-linejoin:round"
     d="m 35.671759,4.4780045 c 3.125537,-1.4323664 4.977993,-4.84524468 5.799763,-7.8369377 0.95477,6.7460666 -2.700478,8.1501406 -5.799763,7.8369377 z"
     id="path11" />
  <path
     style="fill:#bcbcbc;fill-opacity:1;stroke-width:2.14503;stroke-linejoin:round"
     d="m 35.840626,12.072171 c 2.467141,-2.1848183 3.315481,-3.6934863 4.137251,-6.6851787 0.95477,6.7460667 -1.461221,6.5280997 -4.137251,6.6851787 z"
     id="path12" />
  <path
     style="fill:#bcbcbc;fill-opacity:1;stroke-width:2.14503;stroke-linejoin:round"
     d="m 22.888349,1.913872 c 1.780784,-0.08195 3.00065,-0.5858311 3.847106,-2.54128326 C 27.563705,2.574182 24.940737,2.9697154 22.888349,1.913872 Z"
     id="path21" />
  <path
     fill="none"
     stroke="#000000"
     stroke-linecap="round"
     stroke-linejoin="round"
     stroke-width="1.58891"
     d="M 32.89527,16.537119 C 32.475926,12.791961 32.434478,8.7347727 34.401045,7.8894287 33.970288,6.8327747 31.902587,5.258198 33.064392,2.043017 c -1.187475,3.2171428 -1.591941,5.9981335 -3.486016,9.103599 -1.881323,3.084556 -1.58782,7.669071 -1.335417,7.311351 -1.470894,-1.958463 -2.738119,2.633742 -2.80329,0.198689 -0.113077,-4.224944 -0.967562,-6.710347 1.534364,-10.2354161 -0.378682,-1.5201898 -1.407265,-3.8297034 -0.365431,-6.3572915 -1.662339,1.9805294 -3.168386,2.8568164 -5.447898,2.372693 1.263599,2.1520235 0.711644,4.7111306 -0.576037,5.7596756 1.351634,2.848414 -1.29644,6.282008 -3.438026,6.436273 C 15.482662,16.752451 13.369525,10.120978 14.492607,8.3718953 12.421155,4.0665919 9.4979065,0.95754315 14.069989,-6.2737732 l 27.514256,0.1096058 c 0.328688,3.9989511 -0.234076,7.7726092 -1.576026,10.6800732 0.945401,2.3693229 0.01824,4.6861719 -1.020108,6.9689302 0.39156,0.883167 -0.07139,3.698051 -0.774943,5.901716"
     id="path19"
     style="fill:none;fill-opacity:1" />
  <path
     style="fill:#bcbcbc;fill-opacity:1;stroke-width:2.14503;stroke-linejoin:round"
     d="m 26.039241,0.55005284 c 2.815406,0.3413045 4.834751,-0.6798875 6.198518,-2.25911374 -0.582597,3.5778192 -3.581791,3.8322678 -6.198518,2.25911374 z"
     id="path22" />
  <path
     style="fill:#bcbcbc;fill-opacity:1;stroke-width:2.14503;stroke-linejoin:round"
     d="m 17.006203,3.2517363 c 0.657437,-0.1118893 2.068454,-0.6520701 2.334758,-1.6938761 1.071034,-0.4142788 1.536908,-1.26004119 1.794517,-2.8696218 1.251505,3.530791 -2.782311,5.3371718 -4.129275,4.5634979 z"
     id="path23" />
  <path
     style="fill:#74b775;fill-opacity:1;stroke:none;stroke-width:1.36607;stroke-linejoin:round"
     d="M -1.451754,46.984861 36.61253,35.418078 73.154241,46.515937 73.763269,74.495048 H -1.7562683 Z"
     id="path10" />
  <path
     fill="#9b9b9a"
     d="m 31.088553,40.169066 c -2.185757,0.01908 -3.611536,-0.511671 -6.280061,-0.131134 -0.77591,-8.353053 -1.548344,-16.198349 -1.689919,-24.469916 L 21.236379,15.434439 V 66 h 9.771284 z"
     id="path2"
     style="stroke-width:0.8939" />
  <path
     fill="#d0cfce"
     d="m 21.497826,66 -0.01585,-50.330181 -7.032353,0.03177 C 14.442953,28.024529 12.846461,58.934577 10.301941,66 Z"
     id="path14"
     style="stroke-width:0.763299" />
  <path
     fill="none"
     stroke="#000000"
     stroke-linecap="round"
     stroke-linejoin="round"
     stroke-width="1.58292"
     d="M 28.378058,66.208524 C 25.644169,59.138329 24.386608,31.694471 23.666515,15.876152 l -9.047213,-0.133667 c -0.337321,16.352988 -1.658677,43.395844 -4.392565,50.466039 z"
     id="path15" />
  <rect
     x="52.980003"
     y="27"
     width="6"
     height="39"
     fill="#ffffff"
     id="rect3" />
  <rect
     x="52.980003"
     y="34.599998"
     width="6"
     height="1.4502543"
     fill="#ea5a47"
     id="rect1"
     style="stroke-width:0.602133;fill:#121a47;fill-opacity:1" />
  <rect
     x="52.980003"
     y="38.199997"
     width="6"
     height="1.4502543"
     fill="#ea5a47"
     id="rect2"
     style="stroke-width:0.602133;fill:#121a47;fill-opacity:1" />
  <path
     fill="#9b9b9a"
     d="m 70.24,10.5062 a 0.8469,0.8469 0 0 0 -0.17,-0.04 c -0.01,-0.05 -0.03,-0.1 -0.04,-0.14 a 1.68,1.68 0 0 1 0.21,0.18 z"
     id="path3" />
  <rect
     x="52.980003"
     y="41.799995"
     width="6"
     height="1.4502543"
     fill="#ea5a47"
     id="rect4"
     style="stroke-width:0.602133;fill:#121a47;fill-opacity:1" />
  <path
     fill="#9b9b9a"
     d="M 46.576757,43.188257 C 44.391,43.207337 43.827847,42.676586 41.159322,43.057123 40.383412,34.70407 39.287493,23.839583 39.145918,15.568016 L 37.263724,15.434439 V 66 h 9.771284 z"
     id="path4"
     style="stroke-width:0.8939" />
  <path
     fill="#d0cfce"
     d="m 37.525171,66 -0.01585,-50.330181 -7.032353,0.03177 C 30.470298,28.024529 28.873806,58.934577 26.329286,66 Z"
     id="path5"
     style="stroke-width:0.763299" />
  <path
     fill="#3f3f3f"
     d="M 46.768205,43.553479 47,66 h 6 l 0,-22.24206 z"
     id="path6" />
  <rect
     x="52.980003"
     y="31"
     width="6"
     height="1.4502543"
     fill="#ea5a47"
     id="rect6"
     style="stroke-width:0.602133;fill:#121a47;fill-opacity:1" />
  <path
     fill="none"
     stroke="#000000"
     stroke-linecap="round"
     stroke-linejoin="round"
     stroke-width="1.58292"
     d="M 44.405403,66.208524 C 41.671514,59.138329 40.413953,31.694471 39.69386,15.876152 L 30.646647,15.742485 C 30.309326,32.095473 28.98797,59.138329 26.254082,66.208524 Z"
     id="path8" />
  <path
     fill="none"
     stroke="#000000"
     stroke-linecap="round"
     stroke-linejoin="round"
     stroke-width="2"
     d="M 44.197,66 H 53 V 55 C 53.000362,50.737889 52.78569,43.567421 52.78569,43.567421 L 41.541564,43.363224"
     id="path9" />
  <path
     style="color:#000000;fill:#000000;stroke-linecap:round;stroke-linejoin:round;-inkscape-stroke:none"
     d="m 51,26 c -0.552262,5.5e-5 -0.999945,0.447738 -1,1 v 22.720703 c 0,0.552285 0.447715,1 1,1 0.552285,0 1,-0.447715 1,-1 V 28 h 4 v 37 l -4.751691,0 c -0.552284,0 -1,0.447715 -1,1 0,0.552285 0.447716,1 1,1 L 57,67 c 0.552262,-5.5e-5 0.999945,-0.447738 1,-1 V 27 c -5.5e-5,-0.552262 -0.447738,-0.999945 -1,-1 z"
     id="polyline8"
     transform="translate(1.98)" />
  <path
     fill="#9b9b9a"
     d="M 32.336488,42.344898 C 31.560578,33.991845 30.788144,26.146549 30.646569,17.874982 l -1.882194,-0.133577 v 50.565561 l 6.848114,-0.237014 z"
     id="path16"
     style="stroke-width:0.8939" />
  <path
     fill="#d0cfce"
     d="m 29.025822,68.306966 -0.01585,-50.330181 -7.032353,0.03177 c -0.0067,12.32294 -1.603162,43.232988 -4.147682,50.298411 z"
     id="path17"
     style="stroke-width:0.763299" />
  <path
     fill="none"
     stroke="#000000"
     stroke-linecap="round"
     stroke-linejoin="round"
     stroke-width="1.58292"
     d="M 35.906054,68.51549 C 33.172165,61.445295 31.914604,34.001437 31.194511,18.183118 L 22.147298,18.049451 C 21.809977,34.402439 20.488621,61.445295 17.754733,68.51549 Z"
     id="path18" />
</svg>
