<?xml version="1.0" encoding="utf-8"?>
<!-- Generator: Adobe Illustrator 19.0.0, SVG Export Plug-In . SVG Version: 6.00 Build 0)  -->
<svg version="1.1" id="Layer_1" xmlns="http://www.w3.org/2000/svg" xmlns:xlink="http://www.w3.org/1999/xlink" x="0px" y="0px"
	 viewBox="0 0 512 512" style="enable-background:new 0 0 512 512;" xml:space="preserve">
<g id="XMLID_2_">
	<path id="XMLID_8_" d="M504.7,0H7.3v512h497.5V0z M262.9,75.8v37.5h-28.3V75.8v-5.4h28.3V75.8z M234.6,451.5v-39h28.3v39.8v2.3
		h-28.3V451.5z M277.4,450v-52.8h-56.6v14.5v37.5C132,433.9,64.7,356.6,64.7,264c0-93.4,67.3-169.9,156.1-185.2v49h42.9h14.5V77.3
		C370,89.5,442,168.4,442,264C440.4,358.9,369.3,437.8,277.4,450z"/>
	<circle id="XMLID_9_" cx="149.6" cy="268.6" r="28.3"/>
	<circle id="XMLID_10_" cx="362.4" cy="268.6" r="28.3"/>
	<path id="XMLID_13_" d="M253.7,238.8c-14.5,0-26,11.5-26,26c0,14.5,11.5,26,26,26c14.5,0,26-11.5,26-26
		C279.7,250.3,267.5,238.8,253.7,238.8z M253.7,276.3c-6.1,0-11.5-5.4-11.5-11.5s5.4-11.5,11.5-11.5s11.5,5.4,11.5,11.5
		S259.8,276.3,253.7,276.3z"/>
</g>
</svg>
